<?xml version="1.0" ?><!DOCTYPE svg  PUBLIC '-//W3C//DTD SVG 1.1//EN'  'http://www.w3.org/Graphics/SVG/1.1/DTD/svg11.dtd'><svg enable-background="new 0 0 48 48" height="48px" id="Layer_3" version="1.1" viewBox="0 0 48 48" width="48px" xml:space="preserve" xmlns="http://www.w3.org/2000/svg" xmlns:xlink="http://www.w3.org/1999/xlink"><g><circle cx="20.897" cy="10.092" fill="#241F20" r="10.092"/><path d="M25,38c0-6.415,4.651-11.732,10.763-12.794c-1.653-2.127-3.714-3.894-6.06-5.164   c-2.349,2.08-5.425,3.352-8.806,3.352c-3.366,0-6.431-1.261-8.774-3.321C6.01,23.409,1.834,30.102,1.834,37.818   c0,1.215,0.109,2.401,0.307,3.557h23.317C25.169,40.297,25,39.17,25,38z" fill="#241F20"/><path d="M38,28c-5.522,0-10,4.478-10,10s4.478,10,10,10s10-4.478,10-10S43.522,28,38,28z M43.679,41.558   l-2.121,2.121L38,40.121l-3.558,3.559l-2.121-2.122L35.879,38l-3.558-3.558l2.121-2.121L38,35.879l3.558-3.558l2.121,2.122   L40.121,38L43.679,41.558z" fill="#241F20"/></g></svg>